<svg xmlns="http://www.w3.org/2000/svg" width="25" height="25" viewBox="0 0 25 25" fill="none">
<path d="M10.417 5.20825H14.5837V3.12492C14.5837 2.84865 14.4739 2.5837 14.2786 2.38835C14.0832 2.193 13.8183 2.08325 13.542 2.08325H11.4587C11.1824 2.08325 10.9174 2.193 10.7221 2.38835C10.5267 2.5837 10.417 2.84865 10.417 3.12492V5.20825Z" stroke="#898484" stroke-width="1.96414" stroke-linecap="round" stroke-linejoin="round"/>
<path d="M14.5832 3.64587C14.5832 5.33962 15.1113 6.99171 16.0936 8.37192L16.1457 8.44483C17.1621 9.87264 17.7083 11.5818 17.7082 13.3344V19.7917C17.7082 20.3442 17.4887 20.8741 17.098 21.2648C16.7073 21.6555 16.1774 21.875 15.6248 21.875H9.37484C8.8223 21.875 8.2924 21.6555 7.9017 21.2648C7.511 20.8741 7.2915 20.3442 7.2915 19.7917V13.3334C7.2915 11.5813 7.83734 9.87296 8.854 8.44483L8.90609 8.37192C9.88856 6.99186 10.4165 5.33992 10.4165 3.64587" stroke="#898484" stroke-width="1.96414" stroke-linecap="round" stroke-linejoin="round"/>
<path d="M7.29492 15.4198C7.71045 15.2402 8.0694 14.9511 8.33346 14.5834C8.5701 14.2537 8.88343 13.9866 9.24641 13.8051C9.60938 13.6236 10.0111 13.5332 10.4168 13.5417C10.8225 13.5332 11.2242 13.6236 11.5872 13.8051C11.9502 13.9866 12.2635 14.2537 12.5001 14.5834C12.7368 14.913 13.0501 15.1801 13.4131 15.3616C13.776 15.5431 14.1777 15.6335 14.5835 15.625C14.9892 15.6335 15.3909 15.5431 15.7539 15.3616C16.1168 15.1801 16.4302 14.913 16.6668 14.5834C16.9314 14.2144 17.2915 13.9246 17.7085 13.7448" stroke="#898484" stroke-width="1.96414" stroke-linecap="round" stroke-linejoin="round"/>
</svg>