<svg xmlns="http://www.w3.org/2000/svg" width="20" height="20" viewBox="0 0 20 20" fill="none">
<path d="M11.6667 6.66671V5.00004C11.6667 4.55801 11.4911 4.13409 11.1785 3.82153C10.866 3.50897 10.442 3.33337 10 3.33337H4.16667C3.72464 3.33337 3.30072 3.50897 2.98816 3.82153C2.67559 4.13409 2.5 4.55801 2.5 5.00004V15C2.5 15.4421 2.67559 15.866 2.98816 16.1786C3.30072 16.4911 3.72464 16.6667 4.16667 16.6667H10C10.442 16.6667 10.866 16.4911 11.1785 16.1786C11.4911 15.866 11.6667 15.4421 11.6667 15V13.3334" stroke="#BF8484" stroke-width="2" stroke-linecap="round" stroke-linejoin="round"/>
<path d="M5.8335 10H17.5002M17.5002 10L15.0002 7.5M17.5002 10L15.0002 12.5" stroke="#BF8484" stroke-width="2" stroke-linecap="round" stroke-linejoin="round"/>
</svg>