<svg xmlns="http://www.w3.org/2000/svg" width="198" height="216" viewBox="0 0 198 216" fill="none">
  <path d="M65.625 94.7788C65.625 103.145 69.1412 111.169 75.4003 117.085C81.6593 123.001 90.1484 126.324 99 126.324C107.852 126.324 116.341 123.001 122.6 117.085C128.859 111.169 132.375 103.145 132.375 94.7788C132.375 86.4125 128.859 78.3888 122.6 72.4729C116.341 66.557 107.852 63.2335 99 63.2335C90.1484 63.2335 81.6593 66.557 75.4003 72.4729C69.1412 78.3888 65.625 86.4125 65.625 94.7788Z" stroke="#A073FF" stroke-opacity="0.79" stroke-width="20" stroke-linecap="round" stroke-linejoin="round"/>
  <path d="M161.934 154.265L114.731 198.88C110.559 202.82 104.903 205.033 99.0056 205.033C93.1084 205.033 87.4524 202.82 83.2804 198.88L36.0659 154.265C23.6195 142.5 15.1435 127.511 11.7098 111.194C8.2761 94.8758 10.0389 77.9621 16.7752 62.5913C23.5115 47.2205 34.9189 34.0828 49.5547 24.8397C64.1906 15.5966 81.3977 10.6631 99 10.6631C116.602 10.6631 133.809 15.5966 148.445 24.8397C163.081 34.0828 174.488 47.2205 181.225 62.5913C187.961 77.9621 189.724 94.8758 186.29 111.194C182.856 127.511 174.38 142.5 161.934 154.265Z" stroke="#A073FF" stroke-opacity="0.79" stroke-width="20" stroke-linecap="round" stroke-linejoin="round"/>
</svg>