<svg xmlns="http://www.w3.org/2000/svg" width="25" height="25" viewBox="0 0 25 25" fill="none">
<path d="M9.37565 11.4583C11.6768 11.4583 13.5423 9.59285 13.5423 7.29167C13.5423 4.99048 11.6768 3.125 9.37565 3.125C7.07446 3.125 5.20898 4.99048 5.20898 7.29167C5.20898 9.59285 7.07446 11.4583 9.37565 11.4583Z" stroke="#898484" stroke-width="2.5" stroke-linecap="round" stroke-linejoin="round"/>
<path d="M3.125 21.875V19.7917C3.125 18.6866 3.56399 17.6268 4.34539 16.8454C5.12679 16.064 6.1866 15.625 7.29167 15.625H11.4583C12.5634 15.625 13.6232 16.064 14.4046 16.8454C15.186 17.6268 15.625 18.6866 15.625 19.7917V21.875" stroke="#898484" stroke-width="2.5" stroke-linecap="round" stroke-linejoin="round"/>
<path d="M16.6665 3.26044C17.5628 3.48992 18.3572 4.01117 18.9245 4.74201C19.4918 5.47285 19.7997 6.37172 19.7997 7.2969C19.7997 8.22207 19.4918 9.12094 18.9245 9.85178C18.3572 10.5826 17.5628 11.1039 16.6665 11.3334" stroke="#898484" stroke-width="2.5" stroke-linecap="round" stroke-linejoin="round"/>
<path d="M21.875 21.875V19.7917C21.8697 18.872 21.5603 17.98 20.9951 17.2546C20.4298 16.5292 19.6404 16.0111 18.75 15.7812" stroke="#898484" stroke-width="2.5" stroke-linecap="round" stroke-linejoin="round"/>
</svg>