<svg xmlns="http://www.w3.org/2000/svg" width="41" height="59" viewBox="0 0 41 59" fill="none">
  <path d="M17.5833 6.3254H23.4167M20.5 44.1474V44.1765M3 9.23479C3 7.69155 3.61458 6.21153 4.70854 5.12029C5.80251 4.02906 7.28624 3.41602 8.83333 3.41602H32.1667C33.7138 3.41602 35.1975 4.02906 36.2915 5.12029C37.3854 6.21153 38 7.69155 38 9.23479V49.9662C38 51.5094 37.3854 52.9895 36.2915 54.0807C35.1975 55.1719 33.7138 55.785 32.1667 55.785H8.83333C7.28624 55.785 5.80251 55.1719 4.70854 54.0807C3.61458 52.9895 3 51.5094 3 49.9662V9.23479Z" stroke="#A073FF" stroke-width="5" stroke-linecap="round" stroke-linejoin="round"/>
</svg>