<svg xmlns="http://www.w3.org/2000/svg" width="25" height="25" viewBox="0 0 25 25" fill="none">
  <path d="M4.16699 7.29175H20.8337" stroke="#D96565" stroke-width="2.5" stroke-linecap="round" stroke-linejoin="round"/>
  <path d="M10.4165 11.458V17.708" stroke="#D96565" stroke-width="2.5" stroke-linecap="round" stroke-linejoin="round"/>
  <path d="M14.5835 11.458V17.708" stroke="#D96565" stroke-width="2.5" stroke-linecap="round" stroke-linejoin="round"/>
  <path d="M5.2085 7.29175L6.25016 19.7917C6.25016 20.3443 6.46966 20.8742 6.86036 21.2649C7.25106 21.6556 7.78096 21.8751 8.3335 21.8751H16.6668C17.2194 21.8751 17.7493 21.6556 18.14 21.2649C18.5307 20.8742 18.7502 20.3443 18.7502 19.7917L19.7918 7.29175" stroke="#D96565" stroke-width="2.5" stroke-linecap="round" stroke-linejoin="round"/>
  <path d="M9.375 7.29167V4.16667C9.375 3.8904 9.48475 3.62545 9.6801 3.4301C9.87545 3.23475 10.1404 3.125 10.4167 3.125H14.5833C14.8596 3.125 15.1246 3.23475 15.3199 3.4301C15.5153 3.62545 15.625 3.8904 15.625 4.16667V7.29167" stroke="#D96565" stroke-width="2.5" stroke-linecap="round" stroke-linejoin="round"/>
</svg>