<svg xmlns="http://www.w3.org/2000/svg" width="18" height="19" viewBox="0 0 18 19" fill="none">
  <path d="M10.4998 6.0652V4.5489C10.4998 4.14675 10.3417 3.76107 10.0604 3.47671C9.77911 3.19235 9.39758 3.03259 8.99976 3.03259H3.74976C3.35193 3.03259 2.9704 3.19235 2.6891 3.47671C2.40779 3.76107 2.24976 4.14675 2.24976 4.5489V13.6467C2.24976 14.0489 2.40779 14.4345 2.6891 14.7189C2.9704 15.0033 3.35193 15.163 3.74976 15.163H8.99976C9.39758 15.163 9.77911 15.0033 10.0604 14.7189C10.3417 14.4345 10.4998 14.0489 10.4998 13.6467V12.1304" stroke="#BF8484" stroke-width="2" stroke-linecap="round" stroke-linejoin="round"/>
  <path d="M5.25 9.09788H15.75M15.75 9.09788L13.5 6.82343M15.75 9.09788L13.5 11.3723" stroke="#BF8484" stroke-width="2" stroke-linecap="round" stroke-linejoin="round"/>
</svg>