<svg xmlns="http://www.w3.org/2000/svg" width="27" height="27" viewBox="0 0 27 27" fill="none">
<path d="M21.3749 9.79873L15.3753 5.13223C14.8488 4.72263 14.2008 4.50024 13.5337 4.50024C12.8666 4.50024 12.2186 4.72263 11.6921 5.13223L5.69132 9.79873C5.33069 10.0792 5.03892 10.4383 4.83829 10.8488C4.63766 11.2592 4.53348 11.71 4.53369 12.1669V20.2669C4.53369 20.8636 4.77074 21.4359 5.1927 21.8578C5.61466 22.2798 6.18695 22.5169 6.78369 22.5169H20.2837C20.8804 22.5169 21.4527 22.2798 21.8747 21.8578C22.2966 21.4359 22.5337 20.8636 22.5337 20.2669V12.1669C22.5337 11.241 22.1062 10.3669 21.3749 9.79873Z" stroke="#898484" stroke-width="3.11614" stroke-linecap="round" stroke-linejoin="round"/>
<path d="M18 16.875C15.5137 18.3746 11.484 18.3746 9 16.875" stroke="#898484" stroke-width="3.11614" stroke-linecap="round" stroke-linejoin="round"/>
</svg>