<svg xmlns="http://www.w3.org/2000/svg" width="51" height="51" viewBox="0 0 51 51" fill="none">
<path d="M36.1245 23.3748H14.8745C12.5273 23.3748 10.6245 25.2775 10.6245 27.6248V40.3748C10.6245 42.722 12.5273 44.6248 14.8745 44.6248H36.1245C38.4717 44.6248 40.3745 42.722 40.3745 40.3748V27.6248C40.3745 25.2775 38.4717 23.3748 36.1245 23.3748Z" stroke="#6C5FBC" stroke-width="5" stroke-linecap="round" stroke-linejoin="round"/>
<path d="M25.5 36.1252C26.6736 36.1252 27.625 35.1738 27.625 34.0002C27.625 32.8266 26.6736 31.8752 25.5 31.8752C24.3264 31.8752 23.375 32.8266 23.375 34.0002C23.375 35.1738 24.3264 36.1252 25.5 36.1252Z" stroke="#6C5FBC" stroke-width="5" stroke-linecap="round" stroke-linejoin="round"/>
<path d="M17 23.3748V14.8748C17 12.6204 17.8955 10.4584 19.4896 8.86435C21.0837 7.27029 23.2457 6.37476 25.5 6.37476C27.7543 6.37476 29.9163 7.27029 31.5104 8.86435C33.1045 10.4584 34 12.6204 34 14.8748V23.3748" stroke="#6C5FBC" stroke-width="5" stroke-linecap="round" stroke-linejoin="round"/>
</svg>