<svg xmlns="http://www.w3.org/2000/svg" width="34" height="26" viewBox="0 0 34 26" fill="none">
<path d="M10.4167 5.20831H14.5834V3.12498C14.5834 2.84871 14.4737 2.58376 14.2783 2.38841C14.083 2.19306 13.818 2.08331 13.5417 2.08331H11.4584C11.1821 2.08331 10.9172 2.19306 10.7218 2.38841C10.5265 2.58376 10.4167 2.84871 10.4167 3.12498V5.20831Z" stroke="#898484" stroke-width="2.2" stroke-linecap="round" stroke-linejoin="round"/>
<path d="M14.5834 3.64587C14.5834 5.33962 15.1115 6.99171 16.0938 8.37192L16.1459 8.44483C17.1624 9.87264 17.7085 11.5818 17.7084 13.3344V19.7917C17.7084 20.3442 17.4889 20.8741 17.0982 21.2648C16.7075 21.6555 16.1776 21.875 15.6251 21.875H9.37508C8.82255 21.875 8.29264 21.6555 7.90194 21.2648C7.51124 20.8741 7.29175 20.3442 7.29175 19.7917V13.3334C7.29175 11.5813 7.83758 9.87296 8.85425 8.44483L8.90633 8.37192C9.8888 6.99186 10.4168 5.33992 10.4167 3.64587" stroke="#898484" stroke-width="2.2" stroke-linecap="round" stroke-linejoin="round"/>
<path d="M7.29468 15.4198C7.71021 15.2401 8.06916 14.951 8.33322 14.5833C8.56986 14.2536 8.88319 13.9865 9.24616 13.805C9.60913 13.6235 10.0108 13.5331 10.4166 13.5416C10.8223 13.5331 11.224 13.6235 11.5869 13.805C11.9499 13.9865 12.2633 14.2536 12.4999 14.5833C12.7365 14.913 13.0499 15.1801 13.4128 15.3616C13.7758 15.5431 14.1775 15.6335 14.5832 15.625C14.9889 15.6335 15.3906 15.5431 15.7536 15.3616C16.1166 15.1801 16.4299 14.913 16.6666 14.5833C16.9312 14.2144 17.2913 13.9245 17.7082 13.7447" stroke="#898484" stroke-width="2.2" stroke-linecap="round" stroke-linejoin="round"/>
<path d="M21.3162 6.05383L21.0077 17.6787" stroke="#898484" stroke-width="1.3" stroke-linecap="round" stroke-linejoin="round"/>
<path d="M22.3708 19.199L22.3423 20.2903C22.3324 20.6619 22.1753 21.0139 21.9055 21.2687C21.6357 21.5235 21.2754 21.6603 20.9038 21.649C20.5321 21.6377 20.1797 21.4793 19.924 21.2085C19.6682 20.9377 19.5301 20.5768 19.54 20.2052L19.5685 19.1139C19.5784 18.7423 19.7356 18.3903 20.0053 18.1355C20.2751 17.8807 20.6355 17.7439 21.0071 17.7552C21.3787 17.7665 21.7311 17.9249 21.9869 18.1957C22.2426 18.4665 22.3807 18.8274 22.3708 19.199Z" stroke="#898484" stroke-width="1.3" stroke-linecap="round" stroke-linejoin="round"/>
<path d="M19.295 5.99297L19.1613 9.1251C19.1601 9.66635 19.3706 10.1874 19.7477 10.5769C20.1248 10.9665 20.6387 11.1937 21.1797 11.21C21.7206 11.2263 22.2458 11.0305 22.6429 10.6643C23.0401 10.2982 23.2778 9.79068 23.3054 9.25023L23.338 6.11504" stroke="#898484" stroke-width="1.3" stroke-linecap="round" stroke-linejoin="round"/>
</svg>